<svg preserveAspectRatio="none" overflow="visible" style="display: block;" width="27.9767" height="16.9938" viewBox="0 0 27.9767 16.9938" fill="none" xmlns="http://www.w3.org/2000/svg">
<g id="Familia">
<path id="Vector" d="M19.8447 10.0593C20.4818 10.04 20.4842 10.6105 21.1387 11.0432C22.944 11.0969 24.8522 10.9754 26.6708 11.0261C27.0842 11.0376 27.5151 10.9715 27.9163 11.1047C28.0416 11.2871 27.9429 12.1046 27.8813 12.3266C27.7588 12.7681 27.8169 13.7742 27.5951 14.1127C27.3012 14.3473 25.683 14.2718 25.2678 14.2684C24.3561 14.2607 23.4162 14.2826 22.5067 14.2566C22.5583 14.5146 22.6245 14.7348 22.6981 14.9862C23.9934 14.9485 25.4044 14.9951 26.7354 14.9708C26.9446 14.9712 27.2295 14.9451 27.3906 15.0748C27.4712 15.1401 27.5211 15.2362 27.5279 15.3397C27.5512 15.6747 27.2763 15.6971 27.0321 15.6827L27.0002 15.7279L27.2713 16.1951C27.2383 16.3691 27.1832 16.5561 27.1365 16.7284C26.2096 17.3831 25.3913 16.5965 26.1445 15.6651C25.4066 15.724 24.3265 15.6889 23.5637 15.6808C23.7804 15.9683 23.9893 16.3077 23.7557 16.6673C23.4349 17.1608 22.5127 17.0251 22.4393 16.4027C22.4011 16.0792 22.5726 15.8997 22.7582 15.6643L22.2812 15.7145C21.9283 14.9849 21.7038 14.0528 21.4475 13.2907C21.2091 12.4966 21.0504 11.7504 20.2661 11.3038C19.7208 10.9934 18.9294 10.6083 19.8447 10.0593Z" fill="white"/>
<path id="Vector_2" d="M13.5147 5.36505C13.9694 5.30358 15.4354 5.34781 15.9505 5.36569C16.3747 5.60569 19.6843 9.04723 20.2408 9.69201C20.259 9.71325 20.2352 9.76067 20.2239 9.7982C19.9735 9.96378 18.964 9.94239 18.6357 9.94478C18.1699 9.58535 17.4044 8.68748 17.014 8.46792L16.9396 8.51391C16.8569 8.66496 16.8698 8.87334 16.865 9.04995C16.8564 9.54686 16.9294 11.8255 16.8162 12.0966C16.5126 12.1962 12.2597 12.1717 12.0632 12.0632C12.0004 11.6062 13.2697 10.8628 13.4252 10.3828C13.4939 10.1706 13.4184 9.44451 13.4345 9.24347C13.4861 8.60141 13.3668 5.82109 13.5147 5.36505Z" fill="white"/>
<path id="Vector_3" d="M8.75266 3.67171C9.32405 3.64456 10.1612 3.72105 10.739 3.70604C11.3068 3.69119 12.6872 5.19488 13.048 5.60988C13.0761 5.98241 13.1369 7.56817 12.9402 7.8045C12.5597 7.92202 12.3931 7.22055 12.045 7.41536C11.8745 7.70581 11.9297 8.74915 11.942 9.12615C11.9431 10.389 12.2066 10.5987 10.6239 10.4951C10.2868 10.473 8.80383 10.5837 8.60927 10.408C8.5193 10.1324 8.49024 9.03146 8.51868 8.73558C8.58975 7.99531 8.31027 4.09358 8.75266 3.67171Z" fill="white"/>
<path id="Vector_4" d="M15.6548 12.6198C15.9802 12.5999 16.4947 12.5556 16.7853 12.7174C17.1133 12.9001 20.6672 16.4376 20.7485 16.7026C20.7242 16.8537 20.6711 16.8872 20.5112 16.907C19.8634 16.9873 19.1198 16.9958 18.4726 16.9736C18.0873 16.699 17.3892 15.9512 17.0334 15.5991C16.1491 14.7237 15.288 13.8109 14.3826 12.9556C14.1297 13.2012 13.8796 13.4495 13.6323 13.7005C12.6461 14.6631 11.6936 15.6724 10.707 16.6348C10.6167 16.7229 10.4507 16.8669 10.3214 16.9051C9.81593 17.0544 9.12044 16.9471 8.58068 16.9643C8.41112 16.9698 8.07501 16.9346 7.96407 16.8139C7.96493 16.796 7.96483 16.7716 7.96961 16.7534C8.05296 16.4347 11.4426 13.053 11.8639 12.7567L11.8891 12.7393C12.1451 12.5596 13.0969 12.6351 13.4405 12.6383C14.1786 12.6492 14.9169 12.643 15.6548 12.6198Z" fill="white"/>
<path id="Vector_5" d="M2.59757 8.72647C3.34874 8.69741 4.35075 8.70427 5.10028 8.7295C5.36335 8.94459 5.7724 9.38115 6.02538 9.64095C6.48996 10.1181 7.13684 10.7146 7.54301 11.2385C7.26033 11.5879 6.68024 12.1594 6.35293 12.4883C6.17099 12.3475 5.95268 12.1348 5.77943 11.9754C5.66278 11.8531 5.4415 11.5619 5.27264 11.6278C5.154 11.9483 5.16987 13.2953 5.1536 13.7351C4.54959 13.8095 3.1826 13.763 2.54911 13.73C2.50012 13.169 2.48714 9.15105 2.59757 8.72647Z" fill="white"/>
<path id="Vector_6" d="M8.94771 11.0083C9.33023 11.0053 10.8452 10.9342 11.1196 11.1215C11.1571 11.2779 11.1724 11.3246 11.0482 11.4498C9.27677 13.235 7.50503 15.0218 5.71638 16.7895C5.6177 16.887 5.48151 16.9276 5.35152 16.9624C4.94598 16.9835 3.48462 17.0311 3.20056 16.823C3.18146 16.7562 3.15259 16.6834 3.21026 16.6192C3.83234 15.9267 4.65034 15.1322 5.29603 14.4836L7.35998 12.4052C7.70862 12.0536 8.51878 11.1354 8.94771 11.0083Z" fill="white"/>
<path id="Vector_7" d="M9.62064 0.0321809C10.5153 -0.146004 11.3847 0.436118 11.5606 1.33127C11.7365 2.22627 11.1521 3.09412 10.2565 3.26769C9.36413 3.44062 8.50015 2.85875 8.32489 1.96695C8.14962 1.07517 8.72921 0.209727 9.62064 0.0321809Z" fill="white"/>
<path id="Vector_8" d="M14.7174 1.82736C15.2807 1.80516 15.8126 2.08779 16.1094 2.56715C16.4064 3.0465 16.4226 3.64849 16.1516 4.14301C15.8808 4.63753 15.3649 4.94827 14.801 4.95609C13.9444 4.96823 13.2371 4.28944 13.2142 3.43308C13.1913 2.57673 13.8612 1.86105 14.7174 1.82736Z" fill="white"/>
<path id="Vector_9" d="M3.44714 8.3156C2.6995 8.16311 2.20362 7.45015 2.32084 6.69615C2.43806 5.94215 3.127 5.41345 3.88567 5.49505C4.64431 5.5768 5.20493 6.24011 5.15897 7.00161C5.11303 7.76328 4.47675 8.3544 3.71377 8.34418C3.62419 8.34307 3.53492 8.33349 3.44714 8.3156Z" fill="white"/>
<path id="Vector_10" d="M2.53682 14.1709C2.81222 14.1646 4.08862 14.0589 4.12171 14.3499C3.94148 14.7366 1.92187 16.7926 1.55111 16.958C1.23666 16.9906 0.175855 17.0661 1.08867e-06 16.8059C0.0247672 16.4113 2.14639 14.3483 2.53682 14.1709Z" fill="white"/>
<path id="Vector_11" d="M21.8836 7.93557C22.6021 7.78994 23.3015 8.25844 23.4403 8.97827C23.579 9.6981 23.1038 10.3929 22.3826 10.5247C21.671 10.6547 20.9876 10.1875 20.8508 9.47726C20.7139 8.76701 21.1748 8.07928 21.8836 7.93557Z" fill="white"/>
</g>
</svg>
