<svg preserveAspectRatio="none" overflow="visible" style="display: block;" width="50.7755" height="17.9743" viewBox="0 0 50.7755 17.9743" fill="none" xmlns="http://www.w3.org/2000/svg">
<g id="Selecto">
<path id="Vector" d="M42.8758 4.989C43.3846 5.04861 43.894 5.10448 44.4036 5.15657C44.0717 6.01923 43.1991 7.99107 42.6117 8.68505C42.493 8.8883 42.4218 8.93678 42.4181 9.15122L42.4653 9.21027C42.1418 9.34111 37.532 15.8784 38.8463 16.9139C40.21 17.2247 43.8371 11.4703 44.9609 10.3027C46.1207 9.09714 49.1825 7.35149 50.402 9.20467C52.2499 12.0132 46.7979 18.4861 43.7351 17.7368C43.2569 17.6246 42.8451 17.3216 42.5955 16.898C42.1813 16.2103 42.2418 15.452 42.2723 14.6844C41.2486 15.8094 39.8694 17.6274 38.2682 17.7679C36.8883 17.8891 36.5822 16.7526 36.8153 15.6397L36.8943 15.4989C36.8197 15.1782 36.8004 15.2444 36.512 14.9796C37.5366 13.8844 40.0353 10.4801 40.6416 9.11796L40.6575 8.8681L40.9611 8.72731C41.5995 7.47021 42.337 6.27498 42.8758 4.989ZM44.6122 17.1479C46.6823 16.7252 50.6301 10.4201 49.4719 9.22984C49.1921 9.08875 49.0535 9.1133 48.7409 9.12325C46.8389 9.65251 45.3534 11.8388 44.3645 13.4375C43.7466 14.4363 42.8622 16.7557 44.6122 17.1479Z" fill="white"/>
<path id="Vector_2" d="M15.3435 13.4509C15.0042 13.9541 14.7304 14.4942 14.6291 15.0974C14.5535 15.5484 14.5566 16.1482 14.8569 16.5258C14.9979 16.7026 15.199 16.7946 15.4203 16.8185C16.2016 16.9025 17.0758 16.3204 17.6508 15.8436C18.6129 15.0455 19.4415 14.0489 20.1737 13.0407C20.9997 11.9032 26.2793 3.18908 26.315 2.60078C26.3234 2.45993 26.3361 2.39488 26.3999 2.26812C26.7486 2.19909 27.6967 2.33133 28.0998 2.37453C27.8316 3.62309 26.5484 5.48087 25.8504 6.63645L22.0048 12.9935C21.5613 13.7275 20.0876 15.7324 20.6846 16.4739C21.7152 17.0118 23.4083 14.7484 24.0389 14.0411C23.9863 14.3982 24.0345 14.677 24.0081 14.9191C23.2122 15.0368 21.7323 17.9908 20.2787 17.7689C18.6981 17.5274 18.824 16.6526 18.8908 15.3812C17.9451 16.1146 17.2144 16.978 16.0468 17.4221C14.8715 17.869 13.2927 17.6303 12.8194 16.3169C12.5478 15.563 12.8803 14.3805 13.2737 13.6927C14.4448 11.644 16.3629 9.45958 18.645 8.6531C20.0087 8.163 21.2294 8.87655 20.4288 10.3618C20.0034 11.1512 19.1024 11.7948 18.3382 12.2644C17.4124 12.8334 16.3977 13.1666 15.3435 13.4509ZM16.2252 12.7915C18.3712 12.3865 21.4752 8.8377 19.1932 8.92938C17.9448 9.71659 16.656 11.5173 15.6186 12.6702L15.6136 12.8337C15.8346 12.9273 15.9474 12.8499 16.2252 12.7915Z" fill="white"/>
<path id="Vector_3" d="M12.6941 0.0405769C15.1042 -0.150615 16.407 0.249389 16.3983 3.0842C16.3949 4.16926 14.3307 6.83318 13.3247 5.9799C13.4928 5.76518 14.1604 5.67164 14.4242 5.45356C15.5831 4.4962 15.9607 2.34548 15.0374 1.11886C14.7387 0.713851 14.1542 0.437506 13.6507 0.402357C12.1024 0.29436 10.7931 1.59053 10.4431 2.99551C9.85856 5.22203 11.1346 7.13526 11.7478 9.215C12.4943 11.7466 12.2258 14.374 10.0071 16.0907C8.32486 17.3926 6.41449 18.1978 4.24742 17.9193C2.95271 17.7531 1.66763 17.2499 0.826658 16.1585C-1.09055 13.3338 0.621235 9.69951 2.96296 7.91687C4.54577 6.86426 6.4089 6.50627 7.93794 7.86684C8.66019 9.66159 8.10824 11.1841 6.71968 12.4797C6.53476 12.6522 6.24046 12.7508 5.98903 12.7141C5.99991 12.624 6.79116 11.741 6.97856 11.4747C8.20241 9.73431 6.89092 6.76294 4.49884 7.52808C1.99861 8.35227 0.460869 11.3954 1.37519 13.9084C3.03351 18.4663 8.01687 18.3103 10.0596 14.2012C10.8624 12.586 10.279 10.8087 9.62206 9.24328C7.92147 5.19257 8.0753 1.72386 12.6941 0.0405769Z" fill="white"/>
<path id="Vector_4" d="M24.0389 14.041C25.1127 12.1677 29.0462 7.59826 31.4619 8.71924C31.2092 8.71427 31.043 8.71303 30.7888 8.73416L30.7107 8.86562C30.5314 8.90882 30.1147 9.0148 29.9798 9.11642C28.7109 10.0736 27.3767 11.7997 26.367 13.0257C28.6568 12.5039 29.4586 12.1114 30.7375 10.1174L30.8435 10.2791L30.9575 10.0904C31.0713 10.1737 31.0392 10.2082 31.0737 10.3978C30.9457 10.8186 30.7129 10.9817 30.6974 11.2139L30.8994 11.313C29.444 12.5359 28.0589 12.9999 26.2744 13.5475C24.4174 17.0892 26.8297 17.7344 29.2109 15.4977L29.4881 15.7876C29.3371 15.9384 29.1805 16.0832 29.0185 16.2221C26.968 18.011 23.647 18.8392 24.0082 14.919C24.0346 14.6769 23.9864 14.3981 24.0389 14.041Z" fill="white"/>
<path id="Vector_5" d="M30.3311 14.3478C32.2474 12.1378 33.7708 9.06391 36.9989 8.69408C37.475 8.63938 38.6656 8.78234 38.6305 9.46358C38.6103 9.86106 38.036 10.5414 37.7852 10.8646C37.7799 10.3042 37.8246 8.97099 36.9517 9.08473C35.9621 9.25939 34.9394 10.4761 34.3601 11.2509C33.4374 12.4847 32.0289 14.249 32.0687 15.8653C32.0898 16.7197 33.0252 16.9173 33.7133 16.7868C34.7746 16.5851 35.7396 15.6957 36.5119 14.9796C36.8003 15.2444 36.8196 15.1782 36.8942 15.4989L36.8152 15.6397L36.7195 15.5235C36.0734 15.5794 34.9689 17.9693 31.8132 17.9159C30.585 17.1846 30.5347 16.3247 30.673 14.9849C30.773 14.7574 30.7696 14.8544 30.6882 14.6225C30.5238 14.5327 30.4532 14.4895 30.3311 14.3478Z" fill="white"/>
<path id="Vector_6" d="M31.4619 8.71926C32.4975 9.17331 31.4551 10.8077 30.8994 11.313L30.6974 11.2139C30.713 10.9817 30.9457 10.8186 31.0738 10.3978C31.0393 10.2082 31.0713 10.1737 30.9575 10.0904L30.8435 10.2791L30.7375 10.1175C30.9224 9.5565 31.0784 9.37563 30.7108 8.86564L30.7888 8.73418C31.043 8.71305 31.2093 8.71429 31.4619 8.71926Z" fill="white"/>
<path id="Vector_7" d="M42.4653 9.2102L42.4181 9.15115C42.4218 8.93672 42.493 8.88823 42.6117 8.68498C43.0397 9.31121 44.4289 8.5989 44.8574 9.10858C44.6268 9.43987 42.8361 9.32177 42.4653 9.2102Z" fill="white"/>
<path id="Vector_8" d="M30.3312 14.3478C30.4533 14.4895 30.5239 14.5327 30.6883 14.6225C30.7697 14.8544 30.7731 14.7574 30.6731 14.9849L30.5425 14.8599C30.2405 14.9178 29.7339 15.5266 29.4881 15.7876L29.2108 15.4977C29.5692 15.1173 29.9468 14.698 30.3312 14.3478Z" fill="white"/>
<path id="Vector_9" d="M40.6417 9.11803C40.0661 8.96699 39.9449 9.18982 39.286 8.76064L39.3243 8.62917C39.9778 8.52879 40.3122 8.59281 40.9611 8.72738L40.6575 8.86817L40.6417 9.11803Z" fill="white"/>
</g>
</svg>
