<svg preserveAspectRatio="none" overflow="visible" style="display: block;" width="10" height="10" viewBox="0 0 10 10" fill="none" xmlns="http://www.w3.org/2000/svg">
<g id="outline">
<path id="color" d="M9.49675 4.66736C9.01277 5.09108 8.58353 5.11761 8.06795 4.73821C7.83087 4.56385 7.61863 4.35621 7.38093 4.18276C7.19706 4.04858 7.0026 3.91547 6.79281 3.83266C6.42967 3.68896 6.06132 3.73773 5.72961 3.93924C5.50434 4.07618 5.29915 4.24671 5.09013 4.40927C5.06084 4.43181 5.03875 4.44423 5.01652 4.44331C4.99428 4.44423 4.97235 4.43181 4.94291 4.40927C4.73404 4.24671 4.5287 4.07603 4.30342 3.93924C3.97218 3.73773 3.60336 3.68896 3.24022 3.83266C3.03043 3.91547 2.83598 4.04873 2.65211 4.18276C2.41441 4.35621 2.20217 4.56385 1.96508 4.73821C1.44951 5.11761 1.02027 5.09108 0.536283 4.66736C0.496411 4.6324 0.456539 4.59759 0.416667 4.56293C0.488743 4.96165 0.64409 5.31927 0.873508 5.64377C1.16626 6.05798 1.55011 6.35456 2.03194 6.51742C3.15817 6.8982 4.58084 6.3676 5.01667 5.36589C5.4525 6.3676 6.87501 6.8982 8.0014 6.51742C8.48323 6.35456 8.86708 6.05782 9.15983 5.64377C9.3891 5.31927 9.5446 4.96165 9.61667 4.56293C9.57649 4.59743 9.53662 4.6324 9.49675 4.66736Z" fill="white" style="fill:white;fill-opacity:1;"/>
</g>
</svg>
